<svg xmlns="http://www.w3.org/2000/svg" viewBox="0 0 174 81" width="174" height="81">
<path d="M 29.404 11.618 C 29.404 12.085, 29.269 12.435, 28.998 12.668 C 28.727 12.901, 28.405 13.018, 28.032 13.018 C 27.677 13.018, 27.365 12.897, 27.094 12.654 C 26.823 12.411, 26.688 12.075, 26.688 11.646 C 26.688 11.273, 26.809 10.955, 27.052 10.694 C 27.295 10.433, 27.640 10.293, 28.088 10.274 C 27.659 9.845, 27.099 9.630, 26.408 9.630 C 25.643 9.630, 24.849 11.291, 24.028 14.614 C 23.263 17.489, 22.255 22.547, 21.004 29.790 C 19.473 38.937, 17.644 47.859, 15.516 56.558 C 14.321 61.411, 13.369 64.706, 12.660 66.442 C 11.465 69.317, 10.009 70.894, 8.292 71.174 C 8.087 71.211, 7.881 71.230, 7.676 71.230 C 6.817 71.230, 6.085 70.973, 5.478 70.460 C 4.871 69.947, 4.568 69.335, 4.568 68.626 C 4.568 68.159, 4.703 67.809, 4.974 67.576 C 5.245 67.343, 5.567 67.226, 5.940 67.226 C 6.295 67.226, 6.607 67.347, 6.878 67.590 C 7.149 67.833, 7.284 68.169, 7.284 68.598 C 7.284 68.971, 7.163 69.289, 6.920 69.550 C 6.677 69.811, 6.341 69.951, 5.912 69.970 C 6.379 70.399, 6.948 70.614, 7.620 70.614 C 9.132 70.614, 10.485 68.178, 11.680 63.306 C 12.333 60.543, 13.155 56.259, 14.144 50.454 C 15.059 45.022, 16.123 39.483, 17.336 33.836 C 18.549 28.189, 19.408 24.372, 19.912 22.384 C 20.416 20.396, 20.817 18.861, 21.116 17.778 C 21.919 14.810, 22.735 12.607, 23.566 11.170 C 24.397 9.733, 25.325 9.014, 26.352 9.014 C 27.155 9.014, 27.864 9.266, 28.480 9.770 C 29.096 10.274, 29.404 10.890, 29.404 11.618 Z" fill="#000" fill-rule="nonzero" stroke="none" stroke-width="1"/>
<path d="M 40.243 16.014 L 36.734 15.936 L 33.246 16.014 L 33.246 15.308 L 33.990 15.308 C 34.631 15.308, 35.091 15.272, 35.372 15.201 C 35.653 15.129, 35.820 15.044, 35.872 14.946 C 35.924 14.848, 35.950 14.668, 35.950 14.407 L 35.950 4.411 C 35.232 4.777, 34.284 4.960, 33.108 4.960 L 33.108 4.254 C 34.820 4.254, 36.101 3.836, 36.950 3.000 C 37.224 3.000, 37.391 3.026, 37.450 3.078 C 37.509 3.130, 37.538 3.287, 37.538 3.548 L 37.538 14.407 C 37.538 14.668, 37.564 14.848, 37.616 14.946 C 37.669 15.044, 37.835 15.129, 38.116 15.201 C 38.397 15.272, 38.858 15.308, 39.498 15.308 L 40.243 15.308 L 40.243 16.014 Z" fill="#000" fill-rule="nonzero" stroke="none" stroke-width="1"/>
<path d="M 28.234 70.578 C 28.234 70.904, 28.230 71.182, 28.224 71.411 C 28.217 71.639, 28.185 72.002, 28.126 72.498 C 28.067 72.995, 27.985 73.426, 27.881 73.792 C 27.776 74.158, 27.610 74.573, 27.381 75.037 C 27.152 75.500, 26.884 75.879, 26.577 76.173 C 26.270 76.467, 25.869 76.716, 25.372 76.918 C 24.875 77.121, 24.314 77.222, 23.686 77.222 C 23.059 77.222, 22.497 77.121, 22.001 76.918 C 21.504 76.716, 21.102 76.467, 20.795 76.173 C 20.488 75.879, 20.220 75.500, 19.992 75.037 C 19.763 74.573, 19.597 74.158, 19.492 73.792 C 19.387 73.426, 19.306 72.995, 19.247 72.498 C 19.188 72.002, 19.156 71.639, 19.149 71.411 C 19.142 71.182, 19.139 70.904, 19.139 70.578 C 19.139 70.251, 19.142 69.973, 19.149 69.745 C 19.156 69.516, 19.188 69.147, 19.247 68.637 C 19.306 68.128, 19.387 67.687, 19.492 67.314 C 19.597 66.942, 19.763 66.520, 19.992 66.050 C 20.220 65.580, 20.488 65.194, 20.795 64.894 C 21.102 64.593, 21.504 64.338, 22.001 64.129 C 22.497 63.920, 23.059 63.816, 23.686 63.816 C 24.431 63.816, 25.101 63.976, 25.695 64.296 C 26.290 64.616, 26.751 65.018, 27.077 65.501 C 27.848 66.677, 28.234 68.369, 28.234 70.578 Z M 26.450 70.323 C 26.450 68.284, 26.339 66.893, 26.117 66.148 C 25.947 65.599, 25.637 65.165, 25.186 64.845 C 24.735 64.524, 24.235 64.364, 23.686 64.364 C 23.177 64.364, 22.684 64.518, 22.207 64.825 C 21.730 65.132, 21.400 65.632, 21.217 66.324 C 21.021 67.043, 20.923 68.376, 20.923 70.323 C 20.923 72.361, 21.014 73.766, 21.197 74.537 C 21.380 75.269, 21.710 75.808, 22.187 76.154 C 22.664 76.500, 23.164 76.673, 23.686 76.673 C 24.196 76.673, 24.699 76.503, 25.196 76.164 C 25.692 75.824, 26.025 75.255, 26.195 74.458 C 26.365 73.635, 26.450 72.257, 26.450 70.323 Z" fill="#000" fill-rule="nonzero" stroke="none" stroke-width="1"/>
<path d="M 63.115 36.594 C 63.115 37.098, 62.952 37.495, 62.625 37.784 C 62.298 38.073, 61.958 38.218, 61.603 38.218 C 61.248 38.218, 60.982 38.120, 60.805 37.924 C 60.628 37.728, 60.539 37.499, 60.539 37.238 C 60.539 36.902, 60.665 36.585, 60.917 36.286 C 61.169 35.987, 61.491 35.801, 61.883 35.726 C 61.491 35.483, 61.024 35.362, 60.483 35.362 C 59.139 35.362, 58.215 36.463, 57.711 38.666 L 56.759 42.502 C 56.442 43.771, 56.283 44.593, 56.283 44.966 C 56.283 45.489, 56.414 45.927, 56.675 46.282 C 56.936 46.637, 57.319 46.814, 57.823 46.814 C 58.439 46.814, 59.111 46.534, 59.839 45.974 C 60.567 45.414, 61.136 44.471, 61.547 43.146 C 61.603 42.941, 61.724 42.838, 61.911 42.838 C 62.135 42.838, 62.247 42.931, 62.247 43.118 C 62.247 43.323, 62.144 43.650, 61.939 44.098 C 61.734 44.546, 61.454 45.022, 61.099 45.526 C 60.744 46.030, 60.268 46.473, 59.671 46.856 C 59.074 47.239, 58.439 47.430, 57.767 47.430 C 56.983 47.430, 56.330 47.220, 55.807 46.800 C 55.284 46.380, 54.930 45.881, 54.743 45.302 C 54.687 45.433, 54.603 45.577, 54.491 45.736 C 54.379 45.895, 54.197 46.119, 53.945 46.408 C 53.693 46.697, 53.380 46.940, 53.007 47.136 C 52.634 47.332, 52.232 47.430, 51.803 47.430 C 51.112 47.430, 50.501 47.271, 49.969 46.954 C 49.437 46.637, 49.171 46.179, 49.171 45.582 C 49.171 45.134, 49.320 44.751, 49.619 44.434 C 49.918 44.117, 50.282 43.958, 50.711 43.958 C 50.972 43.958, 51.210 44.037, 51.425 44.196 C 51.640 44.355, 51.747 44.602, 51.747 44.938 C 51.747 45.311, 51.621 45.638, 51.369 45.918 C 51.117 46.198, 50.804 46.375, 50.431 46.450 C 50.823 46.693, 51.290 46.814, 51.831 46.814 C 52.428 46.814, 52.965 46.548, 53.441 46.016 C 53.917 45.484, 54.267 44.779, 54.491 43.902 C 55.499 40.094, 56.003 37.873, 56.003 37.238 C 56.003 36.529, 55.844 36.039, 55.527 35.768 C 55.210 35.497, 54.864 35.362, 54.491 35.362 C 53.856 35.362, 53.180 35.642, 52.461 36.202 C 51.742 36.762, 51.168 37.705, 50.739 39.030 C 50.702 39.235, 50.580 39.338, 50.375 39.338 C 50.151 39.338, 50.039 39.245, 50.039 39.058 C 50.039 38.853, 50.142 38.526, 50.347 38.078 C 50.552 37.630, 50.832 37.154, 51.187 36.650 C 51.542 36.146, 52.022 35.703, 52.629 35.320 C 53.236 34.937, 53.875 34.746, 54.547 34.746 C 56.022 34.746, 57.030 35.455, 57.571 36.874 C 58.318 35.455, 59.298 34.746, 60.511 34.746 C 61.146 34.746, 61.738 34.891, 62.289 35.180 C 62.840 35.469, 63.115 35.941, 63.115 36.594 Z" fill="#000" fill-rule="nonzero" stroke="none" stroke-width="1"/>
<path d="M 74.273 33.391 L 73.685 36.958 L 65.610 36.958 C 65.610 36.671, 65.620 36.494, 65.639 36.429 C 65.659 36.363, 65.714 36.285, 65.806 36.194 L 70.529 31.529 C 70.856 31.163, 71.121 30.849, 71.323 30.588 C 71.526 30.327, 71.751 29.922, 71.999 29.373 C 72.248 28.824, 72.372 28.288, 72.372 27.766 C 72.372 26.916, 72.107 26.185, 71.578 25.570 C 71.049 24.956, 70.320 24.649, 69.393 24.649 C 68.844 24.649, 68.298 24.796, 67.756 25.090 C 67.214 25.384, 66.805 25.845, 66.531 26.472 C 66.975 26.472, 67.279 26.580, 67.442 26.795 C 67.606 27.011, 67.687 27.249, 67.687 27.511 C 67.687 27.837, 67.580 28.092, 67.364 28.275 C 67.148 28.458, 66.910 28.550, 66.649 28.550 C 66.531 28.550, 66.407 28.530, 66.276 28.491 C 66.146 28.452, 66.002 28.344, 65.845 28.167 C 65.688 27.991, 65.610 27.753, 65.610 27.452 C 65.610 26.511, 65.995 25.691, 66.766 24.992 C 67.537 24.293, 68.511 23.944, 69.687 23.944 C 70.980 23.944, 72.068 24.293, 72.950 24.992 C 73.832 25.691, 74.273 26.616, 74.273 27.766 C 74.273 28.602, 74.031 29.337, 73.548 29.971 C 73.064 30.604, 72.372 31.281, 71.470 31.999 C 70.307 32.914, 69.001 34.011, 67.550 35.292 L 71.157 35.292 C 72.346 35.292, 72.992 35.253, 73.097 35.174 C 73.293 35.018, 73.463 34.423, 73.607 33.391 L 74.273 33.391 Z" fill="#000" fill-rule="nonzero" stroke="none" stroke-width="1"/>
<path d="M 96.518 47.122 L 92.402 47.430 L 92.402 45.582 C 91.431 46.814, 90.181 47.430, 88.650 47.430 C 87.045 47.430, 85.654 46.814, 84.478 45.582 C 83.302 44.350, 82.714 42.857, 82.714 41.102 C 82.714 39.329, 83.335 37.826, 84.576 36.594 C 85.817 35.362, 87.278 34.746, 88.958 34.746 C 90.377 34.746, 91.553 35.325, 92.486 36.482 L 92.486 30.434 C 92.486 29.743, 92.365 29.309, 92.122 29.132 C 91.879 28.955, 91.273 28.866, 90.302 28.866 L 90.302 27.998 L 94.334 27.690 L 94.334 44.686 C 94.334 45.377, 94.455 45.811, 94.698 45.988 C 94.941 46.165, 95.547 46.254, 96.518 46.254 L 96.518 47.122 Z M 92.402 43.818 L 92.402 38.078 C 92.402 37.705, 92.299 37.359, 92.094 37.042 C 91.329 35.922, 90.321 35.362, 89.070 35.362 C 87.763 35.362, 86.709 35.959, 85.906 37.154 C 85.327 38.050, 85.038 39.375, 85.038 41.130 C 85.038 42.866, 85.309 44.163, 85.850 45.022 C 86.597 46.217, 87.577 46.814, 88.790 46.814 C 90.171 46.814, 91.273 46.161, 92.094 44.854 C 92.299 44.537, 92.402 44.191, 92.402 43.818 Z" fill="#000" fill-rule="nonzero" stroke="none" stroke-width="1"/>
<path d="M 112.086 36.594 C 112.086 37.098, 111.923 37.495, 111.596 37.784 C 111.269 38.073, 110.929 38.218, 110.574 38.218 C 110.219 38.218, 109.953 38.120, 109.776 37.924 C 109.599 37.728, 109.510 37.499, 109.510 37.238 C 109.510 36.902, 109.636 36.585, 109.888 36.286 C 110.140 35.987, 110.462 35.801, 110.854 35.726 C 110.462 35.483, 109.995 35.362, 109.454 35.362 C 108.110 35.362, 107.186 36.463, 106.682 38.666 L 105.730 42.502 C 105.413 43.771, 105.254 44.593, 105.254 44.966 C 105.254 45.489, 105.385 45.927, 105.646 46.282 C 105.907 46.637, 106.290 46.814, 106.794 46.814 C 107.410 46.814, 108.082 46.534, 108.810 45.974 C 109.538 45.414, 110.107 44.471, 110.518 43.146 C 110.574 42.941, 110.695 42.838, 110.882 42.838 C 111.106 42.838, 111.218 42.931, 111.218 43.118 C 111.218 43.323, 111.115 43.650, 110.910 44.098 C 110.705 44.546, 110.425 45.022, 110.070 45.526 C 109.715 46.030, 109.239 46.473, 108.642 46.856 C 108.045 47.239, 107.410 47.430, 106.738 47.430 C 105.954 47.430, 105.301 47.220, 104.778 46.800 C 104.255 46.380, 103.901 45.881, 103.714 45.302 C 103.658 45.433, 103.574 45.577, 103.462 45.736 C 103.350 45.895, 103.168 46.119, 102.916 46.408 C 102.664 46.697, 102.351 46.940, 101.978 47.136 C 101.605 47.332, 101.203 47.430, 100.774 47.430 C 100.083 47.430, 99.472 47.271, 98.940 46.954 C 98.408 46.637, 98.142 46.179, 98.142 45.582 C 98.142 45.134, 98.291 44.751, 98.590 44.434 C 98.889 44.117, 99.253 43.958, 99.682 43.958 C 99.943 43.958, 100.181 44.037, 100.396 44.196 C 100.611 44.355, 100.718 44.602, 100.718 44.938 C 100.718 45.311, 100.592 45.638, 100.340 45.918 C 100.088 46.198, 99.775 46.375, 99.402 46.450 C 99.794 46.693, 100.261 46.814, 100.802 46.814 C 101.399 46.814, 101.936 46.548, 102.412 46.016 C 102.888 45.484, 103.238 44.779, 103.462 43.902 C 104.470 40.094, 104.974 37.873, 104.974 37.238 C 104.974 36.529, 104.815 36.039, 104.498 35.768 C 104.181 35.497, 103.835 35.362, 103.462 35.362 C 102.827 35.362, 102.151 35.642, 101.432 36.202 C 100.713 36.762, 100.139 37.705, 99.710 39.030 C 99.673 39.235, 99.551 39.338, 99.346 39.338 C 99.122 39.338, 99.010 39.245, 99.010 39.058 C 99.010 38.853, 99.113 38.526, 99.318 38.078 C 99.523 37.630, 99.803 37.154, 100.158 36.650 C 100.513 36.146, 100.993 35.703, 101.600 35.320 C 102.207 34.937, 102.846 34.746, 103.518 34.746 C 104.993 34.746, 106.001 35.455, 106.542 36.874 C 107.289 35.455, 108.269 34.746, 109.482 34.746 C 110.117 34.746, 110.709 34.891, 111.260 35.180 C 111.811 35.469, 112.086 35.941, 112.086 36.594 Z" fill="#000" fill-rule="nonzero" stroke="none" stroke-width="1"/>
<path d="M 141.340 37.406 C 141.340 37.555, 141.284 37.686, 141.172 37.798 C 141.060 37.910, 140.929 37.966, 140.780 37.966 L 123.252 37.966 C 123.103 37.966, 122.972 37.910, 122.860 37.798 C 122.748 37.686, 122.692 37.555, 122.692 37.406 C 122.692 37.257, 122.748 37.126, 122.860 37.014 C 122.972 36.902, 123.103 36.846, 123.252 36.846 L 140.780 36.846 C 140.929 36.846, 141.060 36.902, 141.172 37.014 C 141.284 37.126, 141.340 37.257, 141.340 37.406 Z M 141.340 42.838 C 141.340 42.987, 141.284 43.118, 141.172 43.230 C 141.060 43.342, 140.929 43.398, 140.780 43.398 L 123.252 43.398 C 123.103 43.398, 122.972 43.342, 122.860 43.230 C 122.748 43.118, 122.692 42.987, 122.692 42.838 C 122.692 42.689, 122.748 42.558, 122.860 42.446 C 122.972 42.334, 123.103 42.278, 123.252 42.278 L 140.780 42.278 C 140.929 42.278, 141.060 42.334, 141.172 42.446 C 141.284 42.558, 141.340 42.689, 141.340 42.838 Z" fill="#000" fill-rule="nonzero" stroke="none" stroke-width="1"/>
<path d="M 165.218 28.166 C 164.565 28.110, 163.053 28.082, 160.682 28.082 C 158.311 28.082, 156.799 28.110, 156.146 28.166 L 156.146 27.298 L 157.042 27.298 C 158.218 27.298, 158.946 27.214, 159.226 27.046 C 159.506 26.878, 159.646 26.514, 159.646 25.954 L 159.646 11.450 C 158.675 11.935, 157.453 12.178, 155.978 12.178 L 155.978 11.310 C 158.218 11.310, 159.917 10.713, 161.074 9.518 C 161.391 9.518, 161.578 9.555, 161.634 9.630 C 161.690 9.705, 161.718 9.910, 161.718 10.246 L 161.718 25.954 C 161.718 26.514, 161.853 26.878, 162.124 27.046 C 162.395 27.214, 163.127 27.298, 164.322 27.298 L 165.218 27.298 L 165.218 28.166 Z" fill="#000" fill-rule="nonzero" stroke="none" stroke-width="1"/>
<path d="M 166.282 61.542 C 166.282 62.998, 165.708 64.263, 164.560 65.336 C 163.412 66.409, 161.998 66.946, 160.318 66.946 C 158.769 66.946, 157.439 66.526, 156.328 65.686 C 155.217 64.846, 154.662 63.801, 154.662 62.550 C 154.662 61.990, 154.821 61.579, 155.138 61.318 C 155.455 61.057, 155.819 60.926, 156.230 60.926 C 156.659 60.926, 157.028 61.066, 157.336 61.346 C 157.644 61.626, 157.798 62.009, 157.798 62.494 C 157.798 63.017, 157.616 63.423, 157.252 63.712 C 156.888 64.001, 156.454 64.109, 155.950 64.034 C 156.398 64.781, 157.033 65.322, 157.854 65.658 C 158.675 65.994, 159.469 66.162, 160.234 66.162 C 161.037 66.162, 161.765 65.817, 162.418 65.126 C 163.071 64.435, 163.398 63.241, 163.398 61.542 C 163.398 60.105, 163.118 58.971, 162.558 58.140 C 161.998 57.309, 161.167 56.894, 160.066 56.894 L 158.834 56.894 C 158.554 56.894, 158.372 56.880, 158.288 56.852 C 158.204 56.824, 158.162 56.735, 158.162 56.586 C 158.162 56.399, 158.302 56.287, 158.582 56.250 C 158.862 56.250, 159.226 56.222, 159.674 56.166 C 160.757 56.129, 161.587 55.643, 162.166 54.710 C 162.689 53.833, 162.950 52.769, 162.950 51.518 C 162.950 50.379, 162.679 49.572, 162.138 49.096 C 161.597 48.620, 160.971 48.382, 160.262 48.382 C 159.609 48.382, 158.923 48.517, 158.204 48.788 C 157.485 49.059, 156.930 49.502, 156.538 50.118 C 157.695 50.118, 158.274 50.585, 158.274 51.518 C 158.274 51.929, 158.143 52.269, 157.882 52.540 C 157.621 52.811, 157.275 52.946, 156.846 52.946 C 156.435 52.946, 156.095 52.815, 155.824 52.554 C 155.553 52.293, 155.418 51.938, 155.418 51.490 C 155.418 50.426, 155.894 49.525, 156.846 48.788 C 157.798 48.051, 158.974 47.682, 160.374 47.682 C 161.755 47.682, 162.959 48.046, 163.986 48.774 C 165.013 49.502, 165.526 50.426, 165.526 51.546 C 165.526 52.647, 165.162 53.651, 164.434 54.556 C 163.706 55.461, 162.763 56.101, 161.606 56.474 C 163.025 56.754, 164.159 57.375, 165.008 58.336 C 165.857 59.297, 166.282 60.366, 166.282 61.542 Z" fill="#000" fill-rule="nonzero" stroke="none" stroke-width="1"/>
<path d="M 153.486 40.122 L 167.486 40.122" fill="none" fill-rule="nonzero" stroke="#000" stroke-width="1.12"/>
</svg>